# xmcd
#
# Track frame offsets:
#	150
#	12456
#	22772
#	34186
#	45686
#	67555
#	80638
#	88713
#	105895
#	120354
#	133189
#	143382
#	154858
#	167121
#	180901
#	193712
#
# Disc length: 2737 seconds
#
# Revision: 0
# Processed by: cddbd v1.5PL3 Copyright (c) Steve Scherf et al.
# Submitted via: dBpowerAMP V4.0
#
DISCID=ba0aaf10
DTITLE=Various Artist - Blues Harp Heroes
DYEAR=2003
DGENRE=Blues
TTITLE0=Louis Myers - Bluesy
TTITLE1=Walter "Shakey" Horton - Have a Good Time
TTITLE2=Snooky Pryor - Real Fine Boogie
TTITLE3=Little Willie Foster - Little Girl
TTITLE4=Sonny Boy Williamson - Take Your Hand Out of my Pocket
TTITLE5=Jimmy Reed - If the Four Winds Dont Change
TTITLE6=Junior Wells - When the Cats Gone the Mice Play
TTITLE7=Jerry McCain - Honky Tonk
TTITLE8=George "Wild Child" Butler - Runnin Drunk
TTITLE9=Frank Frost - Harp and Soul
TTITLE10=Walter "Shakey" Horton - Need my Baby
TTITLE11=Snooky Pryor - Im Getting Tired
TTITLE12=Louis Myers - Just Whaling
TTITLE13=Sonny Boy Williamson - Steady Rollin Man
TTITLE14=George "Wild Child" Butler - Pit it all in There
TTITLE15=Junior Wells and Earl Hooker - Calling all Blues
EXTD=
EXTT0=
EXTT1=
EXTT2=
EXTT3=
EXTT4=
EXTT5=
EXTT6=
EXTT7=
EXTT8=
EXTT9=
EXTT10=
EXTT11=
EXTT12=
EXTT13=
EXTT14=
EXTT15=
PLAYORDER=
